<?xml version="1.0" encoding="UTF-8" standalone="no"?>
<!DOCTYPE svg PUBLIC "-//W3C//DTD SVG 1.1//EN" "http://www.w3.org/Graphics/SVG/1.1/DTD/svg11.dtd">
<svg width="100%" height="100%" viewBox="0 0 500 470" version="1.1" xmlns="http://www.w3.org/2000/svg" xmlns:xlink="http://www.w3.org/1999/xlink" xml:space="preserve" xmlns:serif="http://www.serif.com/" style="fill-rule:evenodd;clip-rule:evenodd;stroke-linecap:round;stroke-linejoin:round;stroke-miterlimit:1.5;">
    <g transform="matrix(1.23849,0,0,1.23849,-62.4123,-79.3506)">
        <clipPath id="_clip1">
            <rect x="50.394" y="61.64" width="403.716" height="381.923"/>
        </clipPath>
        <g clip-path="url(#_clip1)">
            <g transform="matrix(32.0313,0,0,1,-3363.49,0)">
                <rect x="107.474" y="375.343" width="10.697" height="48.752" style="fill:rgb(112,146,190);"/>
                <path d="M118.171,375.343L118.171,424.095L107.474,424.095L107.474,375.343L118.171,375.343ZM117.961,382.072L107.684,382.072L107.684,417.367L117.961,417.367L117.961,382.072Z"/>
            </g>
            <g transform="matrix(1.04743,0,0,0.99081,-11.4693,-7.06365)">
                <path d="M382.963,326.658L382.963,435.566C382.963,457.232 366.324,474.823 345.829,474.823L160.905,474.823C140.41,474.823 123.77,457.232 123.77,435.566L123.77,326.658C123.77,304.992 140.41,287.402 160.905,287.402L345.829,287.402C366.324,287.402 382.963,304.992 382.963,326.658Z" style="fill:rgb(112,146,190);"/>
                <path d="M382.963,326.658L382.963,435.566C382.963,457.232 366.324,474.823 345.829,474.823L160.905,474.823C140.41,474.823 123.77,457.232 123.77,435.566L123.77,326.658C123.77,304.992 140.41,287.402 160.905,287.402L345.829,287.402C366.324,287.402 382.963,304.992 382.963,326.658ZM376.539,326.658C376.539,308.74 362.778,294.193 345.829,294.193L160.905,294.193C143.955,294.193 130.194,308.74 130.194,326.658L130.194,435.566C130.194,453.484 143.955,468.032 160.905,468.032L345.829,468.032C362.778,468.032 376.539,453.484 376.539,435.566L376.539,326.658Z"/>
            </g>
            <g transform="matrix(0.994486,0,0,1.05857,55.0325,-239.583)">
                <path d="M382.963,326.658L382.963,435.566C382.963,457.232 364.239,474.823 341.177,474.823L165.557,474.823C142.494,474.823 123.77,457.232 123.77,435.566L123.77,326.658C123.77,304.992 142.494,287.402 165.557,287.402L341.177,287.402C364.239,287.402 382.963,304.992 382.963,326.658Z" style="fill:white;"/>
                <path d="M382.963,326.658L382.963,435.566C382.963,457.232 364.239,474.823 341.177,474.823L165.557,474.823C142.494,474.823 123.77,457.232 123.77,435.566L123.77,326.658C123.77,304.992 142.494,287.402 165.557,287.402L341.177,287.402C364.239,287.402 382.963,304.992 382.963,326.658ZM377.889,326.658C377.889,307.623 361.439,292.169 341.177,292.169L165.557,292.169C145.295,292.169 128.845,307.623 128.845,326.658L128.845,435.566C128.845,454.601 145.295,470.056 165.557,470.056L341.177,470.056C361.439,470.056 377.889,454.601 377.889,435.566L377.889,326.658Z"/>
            </g>
            <g transform="matrix(0.167492,0,0,0.467865,43.3306,221.548)">
                <path d="M382.963,306.837L382.963,455.387C382.963,466.114 358.637,474.823 328.673,474.823L178.06,474.823C148.097,474.823 123.77,466.114 123.77,455.387L123.77,306.837C123.77,296.11 148.097,287.402 178.06,287.402L328.673,287.402C358.637,287.402 382.963,296.11 382.963,306.837Z" style="fill:rgb(163,73,164);"/>
                <path d="M382.963,306.837L382.963,455.387C382.963,466.114 358.637,474.823 328.673,474.823L178.06,474.823C148.097,474.823 123.77,466.114 123.77,455.387L123.77,306.837C123.77,296.11 148.097,287.402 178.06,287.402L328.673,287.402C358.637,287.402 382.963,296.11 382.963,306.837ZM332.748,306.837C332.748,306.032 330.922,305.378 328.673,305.378L178.06,305.378C175.812,305.378 173.986,306.032 173.986,306.837L173.986,455.387C173.986,456.192 175.812,456.846 178.06,456.846L328.673,456.846C330.922,456.846 332.748,456.192 332.748,455.387L332.748,306.837Z"/>
            </g>
            <g transform="matrix(0.167492,0,0,0.467865,379.624,221.41)">
                <path d="M382.963,306.837L382.963,455.387C382.963,466.114 358.637,474.823 328.673,474.823L178.06,474.823C148.097,474.823 123.77,466.114 123.77,455.387L123.77,306.837C123.77,296.11 148.097,287.402 178.06,287.402L328.673,287.402C358.637,287.402 382.963,296.11 382.963,306.837Z" style="fill:rgb(163,73,164);"/>
                <path d="M382.963,306.837L382.963,455.387C382.963,466.114 358.637,474.823 328.673,474.823L178.06,474.823C148.097,474.823 123.77,466.114 123.77,455.387L123.77,306.837C123.77,296.11 148.097,287.402 178.06,287.402L328.673,287.402C358.637,287.402 382.963,296.11 382.963,306.837ZM332.748,306.837C332.748,306.032 330.922,305.378 328.673,305.378L178.06,305.378C175.812,305.378 173.986,306.032 173.986,306.837L173.986,455.387C173.986,456.192 175.812,456.846 178.06,456.846L328.673,456.846C330.922,456.846 332.748,456.192 332.748,455.387L332.748,306.837Z"/>
            </g>
            <circle cx="118.171" cy="263.053" r="24.349" style="fill:white;"/>
            <path d="M118.171,238.704C131.61,238.704 142.52,249.614 142.52,263.053C142.52,276.491 131.61,287.402 118.171,287.402C104.732,287.402 93.822,276.491 93.822,263.053C93.822,249.614 104.732,238.704 118.171,238.704ZM118.171,243.75C107.518,243.75 98.869,252.399 98.869,263.053C98.869,273.706 107.518,282.355 118.171,282.355C128.824,282.355 137.473,273.706 137.473,263.053C137.473,252.399 128.824,243.75 118.171,243.75Z"/>
            <circle cx="136.127" cy="193.911" r="35.903" style="fill:white;"/>
            <path d="M136.127,158.008C155.943,158.008 172.03,174.096 172.03,193.911C172.03,213.726 155.943,229.814 136.127,229.814C116.312,229.814 100.224,213.726 100.224,193.911C100.224,174.096 116.312,158.008 136.127,158.008ZM136.127,163.054C119.097,163.054 105.271,176.881 105.271,193.911C105.271,210.941 119.097,224.767 136.127,224.767C153.157,224.767 166.984,210.941 166.984,193.911C166.984,176.881 153.157,163.054 136.127,163.054Z"/>
            <g transform="matrix(0.907615,0,0,1,-384.352,0)">
                <ellipse cx="629.089" cy="391.27" rx="46.104" ry="72.126" style="fill:white;stroke:black;stroke-width:7.05px;"/>
            </g>
            <g transform="matrix(1,0,0,1.0594,-417.534,-18.8747)">
                <ellipse cx="596.649" cy="365.24" rx="28.849" ry="41.829"/>
            </g>
            <g transform="matrix(0.944045,0,0,1,-287.466,-5.68434e-14)">
                <ellipse cx="629.089" cy="391.27" rx="46.104" ry="72.126" style="fill:white;stroke:black;stroke-width:6.92px;"/>
            </g>
            <g transform="matrix(1,0,0,1.0594,-297.41,-18.8747)">
                <ellipse cx="596.649" cy="365.24" rx="28.849" ry="41.829"/>
            </g>
            <g transform="matrix(1.01128,0,0,1,-0.568478,0)">
                <rect x="50.394" y="431.675" width="399.213" height="11.888" style="fill-opacity:0.7;"/>
            </g>
        </g>
    </g>
</svg>
